Coordinates
version=1
nRows=14
nColumns=46
inDegrees=yes

Units are S.I. units (second, meters, Newtons, ...)
Angles are in degrees.

endheader
time	pelvis_tilt	pelvis_list	pelvis_rotation	pelvis_tx	pelvis_ty	pelvis_tz	bb_angle	bb_tx	bb_ty	bb_tz	hip_flexion_r	hip_adduction_r	hip_rotation_r	knee_angle_r	knee_angle_r_beta	ankle_angle_r	subtalar_angle_r	mtp_angle_r	crank_angle_r	hip_flexion_l	hip_adduction_l	hip_rotation_l	knee_angle_l	knee_angle_l_beta	ankle_angle_l	subtalar_angle_l	mtp_angle_l	crank_angle_l	lumbar_extension	lumbar_bending	lumbar_rotation	arm_flex_r	arm_add_r	arm_rot_r	elbow_flex_r	pro_sup_r	wrist_flex_r	wrist_dev_r	arm_flex_l	arm_add_l	arm_rot_l	elbow_flex_l	pro_sup_l	wrist_flex_l	wrist_dev_l
      5.00000000	    -10.29759802	      4.31179614	     16.11336330	      0.06988128	      1.16283168	     -0.23974327	      0.00000000	      0.50000000	      0.00000000	      0.25000000	     58.32368040	    -13.25354267	      4.57724215	     91.59496836	      1.59863378	    -26.04913229	    -10.95731745	      0.00000000	      0.00000000	     53.92249123	      9.94114137	      4.76070029	     52.49096446	      0.91614016	     15.46303316	     -2.69459636	      0.00000000	      0.00000000	    -64.97074436	      7.24107212	     -9.73607787	     89.30955351	    -17.15953723	     38.56618334	     51.64731718	     39.75535259	      0.00000000	      0.00000000	     89.82123991	    -14.33797144	     40.49774787	     56.79296083	     24.07771477	      0.00000000	      0.00000000
      5.00500000	     -9.93078450	      3.75971872	     15.81429786	      0.07061385	      1.16274975	     -0.24135639	      0.00000000	      0.50000000	      0.00000000	      0.25000000	     59.55736577	    -12.81368926	      4.74230207	     93.17980274	      1.62629435	    -27.87550662	    -10.07426123	      0.00000000	      0.00000000	     52.00174954	      9.10639160	      4.89409065	     50.10317957	      0.87446545	     14.87672227	     -1.98456186	      0.00000000	      0.00000000	    -64.91747760	      7.70723550	     -9.22171962	     89.34749680	    -16.85902911	     38.77759712	     51.41085366	     39.70795323	      0.00000000	      0.00000000	     89.81182502	    -14.71220998	     40.78118890	     56.43336470	     24.03336842	      0.00000000	      0.00000000
      5.01000000	     -9.40235594	      3.47193894	     15.34329278	      0.07168995	      1.16314812	     -0.24283053	      0.00000000	      0.50000000	      0.00000000	      0.25000000	     60.56160953	    -12.41496188	      5.00729007	     94.66515861	      1.65221870	    -29.68909212	     -9.66000919	      0.00000000	      0.00000000	     49.80923704	      8.25109506	      4.64279669	     47.70708033	      0.83264563	     14.49840088	     -1.25593960	      0.00000000	      0.00000000	    -64.90255537	      7.91431591	     -9.05447043	     89.42481378	    -16.00567332	     39.66825926	     50.01780850	     39.35127722	      0.00000000	      0.00000000	     89.81324906	    -15.42290375	     42.10430181	     55.39855189	     23.91019351	      0.00000000	      0.00000000
      5.01500000	     -8.86709315	      3.12097342	     14.76793796	      0.07267822	      1.16351556	     -0.24431533	      0.00000000	      0.50000000	      0.00000000	      0.25000000	     61.60867852	    -11.85919740	      5.36058503	     96.04399939	      1.67628402	    -31.44230435	     -9.06898670	      0.00000000	      0.00000000	     47.64359053	      7.37739916	      4.45373808	     45.29960155	      0.79062720	     13.61243819	     -0.54811775	      0.00000000	      0.00000000	    -65.02217951	      8.10246507	     -8.56382135	     89.45162821	    -15.56843117	     40.01507852	     49.58479726	     39.20789259	      0.00000000	      0.00000000	     89.80697405	    -15.78327282	     42.74179702	     54.71096155	     23.83100133	      0.00000000	      0.00000000
      5.02000000	     -8.52727344	      2.49268787	     14.29110931	      0.07343538	      1.16354487	     -0.24610572	      0.00000000	      0.50000000	      0.00000000	      0.25000000	     62.83275437	    -11.21836405	      5.49861903	     97.32716429	      1.69867947	    -32.92313042	     -8.36904780	      0.00000000	      0.00000000	     45.85044897	      6.41183571	      4.51769693	     43.13327620	      0.75281769	     12.79122306	      0.08856445	      0.00000000	      0.00000000	    -64.94469093	      8.55611433	     -7.86687357	     89.47568538	    -15.21227770	     40.27965981	     49.37763749	     39.15916232	      0.00000000	      0.00000000	     89.79513599	    -16.07375640	     43.02653228	     54.23422087	     23.76926601	      0.00000000	      0.00000000
      5.02500000	     -7.89170133	      2.16569471	     13.53326235	      0.07456805	      1.16421822	     -0.24748190	      0.00000000	      0.50000000	      0.00000000	      0.25000000	     63.76017728	    -10.51264319	      5.86766994	     98.52702485	      1.71962099	    -34.61434448	     -7.96025983	      0.00000000	      0.00000000	     43.64163202	      5.35559159	      3.98634728	     40.98824066	      0.71537975	     12.05083803	      1.02696664	      0.00000000	      0.00000000	    -64.99397524	      8.62948438	     -7.31408894	     89.52536916	    -14.50116249	     41.19221877	     47.88166364	     38.69056646	      0.00000000	      0.00000000	     89.79783139	    -16.25270099	     44.77705245	     52.40756212	     23.56397561	      0.00000000	      0.00000000
      5.03000000	     -7.36999924	      1.64328291	     12.79590883	      0.07557632	      1.16458254	     -0.24899587	      0.00000000	      0.50000000	      0.00000000	      0.25000000	     64.79162857	     -9.66892929	      6.12776204	     99.64764449	      1.73917949	    -35.96506563	     -7.34954981	      0.00000000	      0.00000000	     41.64543847	      4.21205206	      3.51886450	     38.96278793	      0.68002894	     11.33267193	      1.96728115	      0.00000000	      0.00000000	    -65.05095706	      8.84600941	     -6.51738447	     89.54448253	    -13.62363807	     41.18225150	     46.81153176	     38.20722766	      0.00000000	      0.00000000	     89.79144590	    -16.32122764	     45.61679908	     51.20360755	     23.47264254	      0.00000000	      0.00000000
      5.03500000	     -7.08121407	      0.84615546	     12.23851638	      0.07642968	      1.16457374	     -0.25084024	      0.00000000	      0.50000000	      0.00000000	      0.25000000	     66.03918650	     -8.89651300	      6.06224080	    100.73788492	      1.75820777	    -36.82171252	     -6.86315628	      0.00000000	      0.00000000	     40.00753455	      3.08232606	      3.52991642	     37.06373033	      0.64688413	     10.49928929	      2.59257051	      0.00000000	      0.00000000	    -64.94975212	      9.36348270	     -5.64711670	     89.54685995	    -13.20120358	     41.36099117	     46.73881021	     38.17177265	      0.00000000	      0.00000000	     89.77121371	    -16.54918627	     45.77315655	     50.78748069	     23.42707192	      0.00000000	      0.00000000
      5.04000000	     -6.32022957	      0.26449899	     11.20523712	      0.07772351	      1.16539919	     -0.25191771	      0.00000000	      0.50000000	      0.00000000	      0.25000000	     66.73337313	     -7.67674204	      6.29580169	    101.72966548	      1.77551761	    -37.53296075	     -6.25482878	      0.00000000	      0.00000000	     37.78824778	      1.56795478	      2.36597619	     35.26111370	      0.61542253	      9.95379139	      3.94872882	      0.00000000	      0.00000000	    -65.23943940	      9.36144060	     -4.53937320	     89.57942696	    -12.56954047	     41.80081772	     45.45676839	     37.77883891	      0.00000000	      0.00000000	     89.77477165	    -16.30353077	     47.16222437	     48.87223136	     23.22477769	      0.00000000	      0.00000000
      5.04500000	     -5.85601551	     -0.53947963	     10.41818537	      0.07872384	      1.16584878	     -0.25346880	      0.00000000	      0.50000000	      0.00000000	      0.25000000	     67.71466123	     -6.62626649	      6.29066018	    102.66926776	      1.79191676	    -37.95294482	     -5.39359479	      0.00000000	      0.00000000	     35.99888707	      0.19197526	      1.70744374	     33.59223085	      0.58629503	      9.14498667	      4.83148799	      0.00000000	      0.00000000	    -65.33166453	      9.71073603	     -3.45188450	     89.59263322	    -11.96494077	     42.02036960	     44.76947507	     37.52710224	      0.00000000	      0.00000000	     89.76070985	    -16.21198122	     47.83475944	     47.64526835	     23.10635456	      0.00000000	      0.00000000
      5.05000000	     -5.42995012	     -1.32018882	      9.56012095	      0.07977447	      1.16627644	     -0.25480109	      0.00000000	      0.50000000	      0.00000000	      0.25000000	     68.71844105	     -5.60188480	      6.15150522	    103.66198691	      1.80924298	    -37.98572292	     -5.08609591	      0.00000000	      0.00000000	     34.27221722	     -1.22799304	      0.73084546	     32.05990830	      0.55955096	      8.60247199	      6.05631346	      0.00000000	      0.00000000	    -65.33917248	      9.95634371	     -2.24525242	     89.59728846	    -11.16726329	     41.96142449	     43.49588302	     36.95172230	      0.00000000	      0.00000000	     89.75606394	    -15.70516768	     48.88652280	     45.67080893	     22.97598141	      0.00000000	      0.00000000
      5.05500000	     -4.99254738	     -2.07015461	      8.69542384	      0.08068249	      1.16690313	     -0.25629365	      0.00000000	      0.50000000	      0.00000000	      0.25000000	     69.66707982	     -4.59477471	      6.02447178	    104.59201971	      1.82547512	    -37.93051604	     -4.78796637	      0.00000000	      0.00000000	     32.54092115	     -2.53525971	     -0.18341146	     30.62493413	      0.53450593	      7.91190064	      6.68325966	      0.00000000	      0.00000000	    -65.53514031	     10.21914690	     -1.17531586	     89.60370851	    -10.55917151	     41.97951364	     42.97610950	     36.69463123	      0.00000000	      0.00000000	     89.74108978	    -15.63158841	     49.36849066	     44.62738687	     22.91572222	      0.00000000	      0.00000000
      5.06000000	     -4.64569330	     -2.76552287	      7.80031729	      0.08151145	      1.16756713	     -0.25758222	      0.00000000	      0.50000000	      0.00000000	      0.25000000	     70.67436414	     -3.57372557	      5.91889410	    105.48107790	      1.84099211	    -37.57123334	     -4.71865060	      0.00000000	      0.00000000	     30.96038688	     -3.82952653	     -1.31836209	     29.37515841	      0.51269323	      7.35260211	      7.92440510	      0.00000000	      0.00000000	    -65.61491987	     10.38281531	     -0.10156776	     89.61071829	     -9.89232546	     41.91129298	     42.10499318	     36.25162477	      0.00000000	      0.00000000	     89.73161074	    -15.24079993	     50.15403849	     43.00943917	     22.82514685	      0.00000000	      0.00000000
      5.06500000	     -4.35206017	     -3.43127867	      6.98291653	      0.08220396	      1.16832177	     -0.25897498	      0.00000000	      0.50000000	      0.00000000	      0.25000000	     71.69221318	     -2.69684435	      5.74405986	    106.33495673	      1.85589510	    -37.00222453	     -4.67379111	      0.00000000	      0.00000000	     29.48040910	     -4.94691655	     -2.22966415	     28.23103290	      0.49272448	      6.55094577	      8.48746550	      0.00000000	      0.00000000	    -65.75696592	     10.60338235	      0.81258832	     89.62181651	     -9.26069098	     41.91065992	     41.64678789	     35.97972263	      0.00000000	      0.00000000	     89.71491436	    -15.09236304	     50.59701684	     41.88300816	     22.75764556	      0.00000000	      0.00000000
